<svg width="24" height="24" viewBox="0 0 24 24" fill="none" xmlns="http://www.w3.org/2000/svg">
<g clip-path="url(#clip0_454_54)">
<path d="M6.85705 2.44497C8.00005 3.27797 8.89005 4.41497 9.65004 5.50297L10.092 6.14697L10.509 6.76197C10.7176 7.0667 10.8068 7.43752 10.7596 7.80377C10.7124 8.17002 10.5321 8.5061 10.253 8.74797L8.30205 10.197C8.20779 10.265 8.14144 10.365 8.11532 10.4783C8.08921 10.5916 8.1051 10.7105 8.16005 10.813C8.60205 11.616 9.38805 12.812 10.288 13.712C11.189 14.612 12.441 15.45 13.3 15.942C13.4077 16.0024 13.5345 16.0193 13.6543 15.9892C13.7741 15.9591 13.8778 15.8842 13.944 15.78L15.214 13.847C15.4475 13.5368 15.792 13.329 16.1752 13.2672C16.5585 13.2053 16.9508 13.2941 17.27 13.515L17.933 13.974C19.172 14.834 20.503 15.811 21.521 17.114C21.6825 17.3218 21.7852 17.5691 21.8184 17.8301C21.8517 18.0912 21.8143 18.3563 21.71 18.598C20.873 20.551 18.755 22.214 16.552 22.133L16.252 22.116L16.019 22.096L15.761 22.066L15.48 22.028L15.175 21.978C15.1216 21.9683 15.0683 21.9583 15.015 21.948L14.679 21.876C14.6203 21.8631 14.5616 21.8497 14.503 21.836L14.137 21.742L13.752 21.632L13.35 21.502C11.504 20.876 9.16105 19.646 6.75705 17.242C4.35405 14.839 3.12405 12.496 2.49805 10.65L2.36805 10.248L2.25805 9.86297L2.16405 9.49697L2.08605 9.15097C2.06352 9.04261 2.04251 8.93393 2.02305 8.82497L1.97305 8.51997L1.93305 8.23897L1.90405 7.98097L1.88405 7.74797L1.86805 7.44797C1.78705 5.25197 3.46805 3.11897 5.41205 2.28597C5.64602 2.18494 5.90225 2.14647 6.15558 2.17435C6.40891 2.20222 6.65063 2.29548 6.85705 2.44497ZM14.992 6.03997L15.108 6.05297C15.836 6.18137 16.5045 6.53691 17.0179 7.06865C17.5314 7.60039 17.8632 8.28101 17.966 9.01297C18.0027 9.26615 17.9409 9.52375 17.7934 9.73277C17.646 9.9418 17.424 10.0864 17.1732 10.1367C16.9223 10.187 16.6618 10.1393 16.445 10.0034C16.2283 9.8675 16.0719 9.65369 16.008 9.40597L15.985 9.29097C15.9448 9.00407 15.8224 8.73496 15.6325 8.51616C15.4426 8.29735 15.1934 8.13821 14.915 8.05797L14.76 8.02297C14.5089 7.97847 14.2843 7.83971 14.1321 7.63508C13.98 7.43045 13.9117 7.17541 13.9413 6.92212C13.971 6.66883 14.0963 6.43643 14.2916 6.27245C14.4869 6.10848 14.7375 6.02531 14.992 6.03997ZM15 2.99997C16.5913 2.99997 18.1175 3.63211 19.2427 4.75733C20.3679 5.88255 21 7.40867 21 8.99997C20.9998 9.25485 20.9022 9.5 20.7272 9.68534C20.5522 9.87068 20.3131 9.98221 20.0587 9.99714C19.8042 10.0121 19.5537 9.9293 19.3582 9.76571C19.1628 9.60212 19.0371 9.37007 19.007 9.11697L19 8.99997C19.0004 7.98439 18.6143 7.00673 17.92 6.2655C17.2258 5.52426 16.2755 5.07502 15.262 5.00897L15 4.99997C14.7348 4.99997 14.4805 4.89461 14.2929 4.70708C14.1054 4.51954 14 4.26519 14 3.99997C14 3.73475 14.1054 3.4804 14.2929 3.29286C14.4805 3.10533 14.7348 2.99997 15 2.99997Z" fill="white"/>
</g>
<defs>
<clipPath id="clip0_454_54">
<rect width="24" height="24" fill="white"/>
</clipPath>
</defs>
</svg>
