<svg width="706" height="706" viewBox="0 0 706 706" fill="none" xmlns="http://www.w3.org/2000/svg">
<path fill-rule="evenodd" clip-rule="evenodd" d="M596.871 198.992C588.296 199.067 580.115 195.395 574.471 188.939C554.685 166.303 531.49 146.73 505.699 131.021C498.37 126.556 493.355 119.113 491.972 110.643C490.589 102.172 492.974 93.5205 498.502 86.9558C512.919 69.8374 534.606 58.8826 558.823 58.8826C602.366 58.8826 637.663 94.1804 637.663 137.722C637.663 157.06 630.663 174.84 619.093 188.55C613.562 195.104 605.447 198.918 596.871 198.992ZM213.91 110.642C212.526 119.112 207.512 126.556 200.182 131.02C174.391 146.729 151.197 166.302 131.41 188.938C125.766 195.395 117.585 199.066 109.01 198.992C100.434 198.917 92.3185 195.103 86.7879 188.549C75.2183 174.838 68.2189 157.06 68.2189 137.722C68.2189 94.1804 103.517 58.8826 147.059 58.8826C171.276 58.8826 192.963 69.8369 207.379 86.9549C212.908 93.5195 215.293 102.172 213.91 110.642ZM545.734 122.576C556.333 130.453 566.433 138.963 575.979 148.05C583.182 154.907 590.068 162.092 596.615 169.582C603.678 161.213 608.011 150.466 608.242 138.713C608.248 138.384 608.252 138.054 608.252 137.722C608.252 110.424 586.122 88.2944 558.823 88.2944C555.613 88.2944 552.473 88.6005 549.433 89.1853C538.102 91.3645 528.148 97.4129 520.999 105.902C529.51 111.086 537.763 116.652 545.734 122.576ZM129.903 148.049C139.448 138.962 149.548 130.452 160.147 122.575C168.118 116.651 176.371 111.085 184.883 105.901C177.734 97.4123 167.779 91.364 156.448 89.185C153.408 88.6005 150.269 88.2944 147.059 88.2944C119.76 88.2944 97.6306 110.424 97.6306 137.722C97.6306 138.053 97.6339 138.383 97.6403 138.712C97.8711 150.464 102.204 161.212 109.266 169.581C115.813 162.091 122.7 154.906 129.903 148.049ZM338.233 617.254V588.294C338.233 580.172 344.817 573.588 352.939 573.588C361.061 573.588 367.645 580.172 367.645 588.294V617.254C428.92 613.475 483.85 586.244 523.569 544.427L504.305 525.163C498.562 519.42 498.562 510.109 504.305 504.366C510.048 498.623 519.36 498.623 525.103 504.366L542.528 521.791C568.537 486.472 584.913 443.622 587.781 397.117H558.822C550.7 397.117 544.116 390.533 544.116 382.412C544.116 374.29 550.7 367.706 558.822 367.706H587.781C584.457 313.799 562.982 264.804 529.393 226.756L510.397 245.751C504.654 251.494 495.342 251.494 489.599 245.751C483.856 240.008 483.856 230.697 489.599 224.954L508.595 205.958C470.547 172.369 421.552 150.894 367.645 147.57V176.529C367.645 184.651 361.061 191.235 352.939 191.235C344.817 191.235 338.233 184.651 338.233 176.529V147.57C284.327 150.894 235.331 172.369 197.283 205.958L216.279 224.954C222.022 230.697 222.022 240.008 216.279 245.751C210.536 251.494 201.225 251.494 195.482 245.751L176.486 226.755C142.896 264.803 121.421 313.799 118.097 367.706H147.057C155.179 367.706 161.763 374.29 161.763 382.412C161.763 390.533 155.179 397.117 147.057 397.117H118.097C120.965 443.622 137.341 486.472 163.35 521.791L180.776 504.366C186.519 498.623 195.83 498.623 201.573 504.366C207.316 510.109 207.316 519.42 201.573 525.163L182.309 544.427C222.028 586.244 276.958 613.475 338.233 617.254ZM191.176 591.955C177.38 581.29 164.666 569.292 153.228 556.155C152.574 555.688 151.951 555.161 151.364 554.575C150.177 553.388 149.235 552.048 148.539 550.619C147.922 549.87 147.309 549.118 146.7 548.362L122.67 596.422C117.781 606.2 124.891 617.704 135.824 617.704H176.47C184.591 617.704 191.176 611.12 191.176 602.998V591.955ZM127.44 521.116L96.3636 583.268C81.6966 612.602 103.027 647.116 135.824 647.116H176.47C198.012 647.116 215.949 631.675 219.816 611.257C258.924 634.056 304.406 647.117 352.939 647.117C401.509 647.117 447.024 634.036 486.152 611.205C486.123 611.222 486.094 611.239 486.065 611.256C489.931 631.675 507.868 647.116 529.411 647.116H570.057C602.853 647.116 624.184 612.602 609.517 583.268L578.44 521.115C572.587 530.612 566.15 539.71 559.18 548.361L583.21 596.422C588.099 606.2 580.989 617.704 570.057 617.704H529.411C521.289 617.704 514.705 611.12 514.705 602.998V591.954C506.551 598.258 498.019 604.096 489.15 609.429C513.026 595.073 534.451 577.056 552.649 556.156C553.303 555.689 553.927 555.162 554.514 554.575C555.702 553.387 556.644 552.047 557.34 550.618C595 504.907 617.624 446.345 617.645 382.499V382.412V382.324C617.597 236.171 499.103 117.706 352.939 117.706C206.746 117.706 88.2332 236.219 88.2332 382.412C88.2332 433.271 102.577 480.781 127.44 521.116ZM352.939 220.647C361.061 220.647 367.645 227.231 367.645 235.353V356.935C372.11 359.517 375.833 363.241 378.416 367.706H441.174C449.296 367.706 455.88 374.29 455.88 382.412C455.88 390.533 449.296 397.117 441.174 397.117H378.416C373.331 405.909 363.826 411.823 352.939 411.823C336.695 411.823 323.527 398.655 323.527 382.412C323.527 371.525 329.442 362.02 338.233 356.935V235.353C338.233 227.231 344.817 220.647 352.939 220.647Z" fill="white"/>
</svg>
