<svg xmlns="http://www.w3.org/2000/svg" xmlns:xlink="http://www.w3.org/1999/xlink" viewBox="0,0,256,256" width="100px" height="100px"><g fill="#ffffff" fill-rule="nonzero" stroke="none" stroke-width="1" stroke-linecap="butt" stroke-linejoin="miter" stroke-miterlimit="10" stroke-dasharray="" stroke-dashoffset="0" font-family="none" font-weight="none" font-size="none" text-anchor="none" style="mix-blend-mode: normal"><g transform="scale(2.56,2.56)"><path d="M52.93945,7.91016c-0.46548,0.00685 -0.91947,0.02481 -1.36328,0.05469c-20.95342,1.41073 -39.84561,20.26559 -42.4375,42.22656c-1.14421,9.68808 1.36531,21.5337 15.03516,33.35352c0.62414,0.58458 1.26638,1.15311 1.94922,1.68945c0.4234,0.33256 0.85666,0.64694 1.29297,0.95313c0.02389,0.01834 0.04636,0.03635 0.07031,0.05469c0.03237,0.02551 0.06629,0.04899 0.10156,0.07031c0.00149,0.00103 0.00242,0.00288 0.00391,0.00391c15.4205,10.65422 38.53745,5.0362 52.54297,-12.79492c14.3607,-18.28332 13.96953,-42.82346 -1.11719,-54.99609c-0.03311,-0.0378 -0.06902,-0.07306 -0.10742,-0.10547c-9.63768,-8.03363 -18.98855,-10.61258 -25.9707,-10.50977zM58.64063,13.82227c6.86852,-0.15105 13.45856,1.7971 18.8418,6.02539c14.35531,11.27543 14.98555,34.73127 1.07813,52.4375c-13.50063,17.18832 -35.50973,22.34956 -49.91797,12.32227c-1.11549,-0.85597 -2.15367,-1.70908 -3.14258,-2.56055c-12.51364,-11.78396 -12.49524,-33.92126 0.78125,-50.82422c8.69214,-11.06639 20.91184,-17.14864 32.35938,-17.40039zM57.98633,18.36914c-10.23131,0.24503 -21.08309,5.71811 -28.74023,15.4668c-0.0127,0.01616 -0.02444,0.03265 -0.03711,0.04883c-0.01094,0.0139 -0.02227,0.0271 -0.0332,0.04102c-1.47217,1.8743 -2.75744,3.82887 -3.85156,5.83398c-8.06005,14.62974 -6.42861,31.86863 4.9707,40.82227c12.98474,10.19891 33.41264,5.54321 45.66406,-10.05469c12.25143,-15.5979 11.93591,-36.54718 -1.04883,-46.74609c-4.86928,-3.82459 -10.78504,-5.55913 -16.92383,-5.41211zM56.74609,21.07813c5.50167,-0.14308 10.77085,1.39822 15.06055,4.76758c11.4392,8.98496 11.89538,27.81148 0.67578,42.0957c-11.21959,14.28422 -29.6194,18.30137 -41.05859,9.31641c-10.34397,-8.12472 -11.70546,-24.29682 -3.57617,-37.88086c0.88392,-1.46827 1.87329,-2.90752 2.9707,-4.30469c0.32725,-0.41664 0.66331,-0.82087 1.00195,-1.2207c6.91989,-8.09863 16.21481,-12.5469 24.92578,-12.77344zM52.78516,24.65234c-0.55152,0.00862 -0.99193,0.46214 -0.98437,1.01367v4.73438c-0.0051,0.36064 0.18438,0.69608 0.49587,0.87789c0.3115,0.18181 0.69676,0.18181 1.00825,0c0.3115,-0.18181 0.50097,-0.51725 0.49587,-0.87789v-4.73437c0.0037,-0.2703 -0.10218,-0.53059 -0.29351,-0.72155c-0.19133,-0.19097 -0.45182,-0.29634 -0.72212,-0.29212zM81.46875,25.08594c0.372,0.543 0.79883,1.10641 1.29883,1.69141c-0.404,-0.585 -0.83083,-1.14841 -1.29883,-1.69141zM60.92383,28.61523c-0.9435,0.06031 -2.03172,0.77648 -2.57422,2.22461c-1.34935,3.58594 -4.54482,11.90834 -6.38672,16.71875c-0.8903,0.30486 -1.75964,0.89265 -2.48828,1.82031c-1.85924,2.36709 -1.41598,5.12253 0.26563,6.44336c0.77429,0.60817 1.78475,0.87222 2.82813,0.76758l3.62109,7c1.7,2.94 4.77055,0.50016 3.56055,-1.83984l-3.71484,-7.16602c0.00867,-0.01089 0.01871,-0.01831 0.02734,-0.0293c1.79008,-2.27904 1.4333,-4.90339 -0.0957,-6.27539c1.83852,-4.79263 5.06517,-13.21437 6.41406,-16.79883c0.73125,-1.935 -0.24396,-2.94278 -1.45703,-2.86523zM70.83398,28.93555c-0.29444,0.01301 -0.56815,0.15522 -0.74805,0.38867l-2.94727,3.70313c-0.3441,0.43255 -0.2724,1.06215 0.16016,1.40625c0.43255,0.3441 1.06215,0.2724 1.40625,-0.16016l2.94727,-3.70508c0.25004,-0.30528 0.2972,-0.72904 0.12039,-1.08182c-0.17681,-0.35278 -0.54453,-0.56861 -0.93875,-0.55099zM34.18555,36.42188c-0.42505,0.00608 -0.79982,0.28019 -0.93437,0.68343c-0.13456,0.40324 0.00049,0.84747 0.33672,1.10759l3.48633,2.77344c0.27795,0.23823 0.66384,0.30556 1.00605,0.17554c0.3422,-0.13002 0.58602,-0.43662 0.63565,-0.79931c0.04963,-0.36269 -0.10287,-0.72352 -0.39756,-0.94069l-3.48633,-2.77344c-0.1821,-0.14927 -0.41104,-0.2295 -0.64648,-0.22656zM77.65039,45.98242c-0.05715,0.00229 -0.114,0.00948 -0.16992,0.02148l-4.57031,0.88281c-0.36057,0.05742 -0.6612,0.30678 -0.78428,0.65052c-0.12308,0.34375 -0.04905,0.72725 0.19313,1.00049c0.24218,0.27324 0.61402,0.39279 0.97006,0.31188l4.57227,-0.88281c0.51795,-0.09108 0.87688,-0.56775 0.82129,-1.0907c-0.05559,-0.52295 -0.5067,-0.91351 -1.03223,-0.89367zM53.44336,49.24023c0.42694,0.02968 0.80929,0.20194 1.11914,0.44531c0.82628,0.649 1.28215,1.91039 -0.07227,3.63477c-1.35442,1.72437 -2.68739,1.57869 -3.51367,0.92969c-0.82628,-0.649 -1.28411,-1.91039 0.07031,-3.63477c0.84651,-1.07773 1.68493,-1.42447 2.39648,-1.375zM31.59766,55.73047c-0.05709,0.00165 -0.11394,0.00818 -0.16992,0.01953l-4.76367,0.91992c-0.35106,0.06761 -0.63937,0.3174 -0.75629,0.65525c-0.11692,0.33785 -0.04469,0.71241 0.18948,0.98256c0.23417,0.27014 0.59469,0.39481 0.94571,0.32703l4.76367,-0.92187c0.51129,-0.09699 0.86276,-0.56988 0.8082,-1.08743c-0.05456,-0.51754 -0.4969,-0.90675 -1.01718,-0.895zM67.54492,62.62305c-0.42505,0.00608 -0.79981,0.28019 -0.93437,0.68343c-0.13456,0.40324 0.00049,0.84747 0.33672,1.10759l2.94727,2.3457c0.27902,0.22756 0.65883,0.28757 0.99442,0.15712c0.33559,-0.13045 0.57516,-0.43122 0.62724,-0.78749c0.05208,-0.35627 -0.09136,-0.71303 -0.37557,-0.93408l-2.94727,-2.3457c-0.18262,-0.14971 -0.41232,-0.22996 -0.64844,-0.22656zM38.02539,69.40625c-0.29411,0.01253 -0.56777,0.154 -0.74805,0.38672l-3.4043,4.2793c-0.22229,0.27981 -0.27841,0.65696 -0.14721,0.98936c0.1312,0.3324 0.42978,0.56955 0.78325,0.62211c0.35347,0.05255 0.70813,-0.08747 0.93036,-0.36733l3.40234,-4.27734c0.24976,-0.30501 0.29704,-0.72828 0.12074,-1.08088c-0.1763,-0.3526 -0.54329,-0.56874 -0.93715,-0.55193zM53.08203,72.14844c-0.55152,0.00862 -0.99193,0.46214 -0.98437,1.01367v4.62109c-0.0051,0.36064 0.18438,0.69608 0.49587,0.87789c0.3115,0.18181 0.69676,0.18181 1.00825,0c0.3115,-0.18181 0.50097,-0.51725 0.49587,-0.87789v-4.62109c0.0037,-0.2703 -0.10218,-0.53059 -0.29351,-0.72155c-0.19133,-0.19096 -0.45182,-0.29634 -0.72211,-0.29212z"></path></g></g></svg>