<svg width="18" height="18" viewBox="0 0 18 18" fill="none" xmlns="http://www.w3.org/2000/svg">
<path fill-rule="evenodd" clip-rule="evenodd" d="M8.99999 17.3334C13.6024 17.3334 17.3333 13.6025 17.3333 9.00008C17.3333 4.39771 13.6024 0.666748 8.99999 0.666748C4.39762 0.666748 0.666656 4.39771 0.666656 9.00008C0.666656 13.6025 4.39762 17.3334 8.99999 17.3334ZM11.1651 7.74997C10.7019 6.94774 8.34233 5.6326 7.16706 5.01306C6.85117 4.84654 6.47752 5.06227 6.46378 5.4191C6.41268 6.74668 6.37182 9.44774 6.83498 10.25C7.29815 11.0522 9.65777 12.3673 10.833 12.9869C11.1489 13.1534 11.5226 12.9377 11.5363 12.5808C11.5874 11.2533 11.6283 8.55219 11.1651 7.74997Z" fill="#FFF"/>
</svg>
