<svg width="60" height="60" viewBox="0 0 60 60" fill="none" xmlns="http://www.w3.org/2000/svg">
<g clip-path="url(#clip0_0_2352)">
<path fill-rule="evenodd" clip-rule="evenodd" d="M-1 -5H61V65H-1V-5Z" fill="#229E45"/>
<path fill-rule="evenodd" clip-rule="evenodd" d="M30.1092 45.2145L53.7675 30.0233L29.9679 14.7855L6.2312 30.0544L30.1092 45.2145Z" fill="#F8E509"/>
<path fill-rule="evenodd" clip-rule="evenodd" d="M40.4204 30C40.4204 35.4571 35.9399 39.8817 30.4078 39.8817C28.431 39.8786 26.4994 39.2958 24.8573 38.2069C23.2152 37.118 21.9364 35.572 21.1824 33.7642C20.4283 31.9565 20.2331 29.9681 20.6212 28.0506C21.0094 26.133 21.9635 24.3723 23.363 22.9912C24.7625 21.6099 26.5445 20.6702 28.4838 20.2908C30.4231 19.9113 32.4326 20.1092 34.2583 20.8593C36.0839 21.6095 37.6437 22.8783 38.7406 24.5052C39.8374 26.1322 40.422 28.0444 40.4204 30Z" fill="#2B49A3"/>
<path fill-rule="evenodd" clip-rule="evenodd" d="M27.1206 35.9233L26.8067 35.7448L26.4928 35.9L26.5634 35.5507L26.3123 35.2868L26.6654 35.248L26.8381 34.9375L26.9872 35.2635L27.3324 35.3256L27.0735 35.5585M33.8218 37.6L33.5157 37.4215L33.2019 37.5767L33.2646 37.2274L33.0214 36.9712L33.3745 36.9324L33.5393 36.6142L33.6962 36.9402L34.0415 37.0023L33.7747 37.2429M30.9341 34.9142L30.6673 34.7589L30.3927 34.8986L30.4555 34.5959L30.2358 34.3708L30.5496 34.3397L30.6909 34.0603L30.8164 34.3475L31.1224 34.4018L30.887 34.6114M37.7138 33.9516L37.447 33.7964L37.1724 33.9361L37.2352 33.6334L37.0233 33.416L37.3293 33.385L37.4706 33.1133L37.5961 33.3927L37.8943 33.4471L37.6667 33.6489M30.8164 31.9411L30.5025 31.7704L30.1887 31.9256L30.2514 31.5685L30.0082 31.3124L30.3613 31.2736L30.5261 30.9553L30.683 31.2813L31.0283 31.3434L30.7615 31.5918M22.5537 28.8749L22.2398 28.7042L21.9259 28.8594L22.0044 28.5023L21.7455 28.2462L22.1064 28.2074L22.2633 27.8891L22.4203 28.2151L22.7655 28.2772L22.5066 28.5179M23.5502 32.958L23.2364 32.7795L22.9225 32.9347L22.9931 32.5854L22.742 32.3293L23.0951 32.2827L23.2599 31.9722L23.4168 32.2982L23.7621 32.3603L23.5031 32.6009M33.861 27.3768L33.5785 27.2215L33.296 27.3613L33.3588 27.0508L33.1391 26.8179L33.453 26.7791L33.6021 26.4996L33.7355 26.7946L34.0493 26.8489L33.8139 27.0585M33.2882 30.0316L33.0763 29.9074L32.8488 30.016L32.8958 29.7676L32.7232 29.5891L32.9743 29.558L33.092 29.3407L33.194 29.5736L33.4294 29.6124L33.2568 29.7832M22.0986 33.6955L21.8867 33.579L21.6748 33.6799L21.7219 33.4471L21.5571 33.2763L21.7925 33.2452L21.9024 33.0356L22.0044 33.253L22.2398 33.2996L22.0593 33.4548M37.7687 34.6425L37.5961 34.5571L37.4235 34.6347L37.4627 34.4562L37.3293 34.332L37.5176 34.3087L37.6118 34.1534L37.6903 34.3087L37.8864 34.3475L37.7374 34.4639" fill="#FFFFEF"/>
<path fill-rule="evenodd" clip-rule="evenodd" d="M22.0986 33.6945L21.8867 33.578L21.6748 33.679L21.7219 33.4461L21.5571 33.2753L21.7925 33.2443L21.9024 33.0347L22.0044 33.252L22.2398 33.2986L22.0593 33.4538" fill="#FFFFEF"/>
<path fill-rule="evenodd" clip-rule="evenodd" d="M22.0986 33.6954L21.8867 33.579L21.6748 33.6799L21.7219 33.447L21.5571 33.2763L21.7925 33.2452L21.9024 33.0356L22.0044 33.253L22.2398 33.2996L22.0593 33.4548M25.3786 33.6877L25.1745 33.579L24.9627 33.6799L25.0097 33.447L24.845 33.2763L25.0804 33.2452L25.1902 33.0356L25.2922 33.253L25.5276 33.2918L25.3472 33.4548M24.9705 34.7744L24.7665 34.658L24.5546 34.7667L24.6017 34.5338L24.4369 34.3553L24.6723 34.3242L24.7822 34.1146L24.8842 34.332L25.1196 34.3785L24.9391 34.5338M31.7973 32.8105L31.5933 32.6863L31.3736 32.795L31.4206 32.5621L31.2637 32.3836L31.4991 32.3603L31.609 32.1507L31.7031 32.3681L31.9385 32.4069L31.7659 32.5699M29.7963 32.8028L29.5845 32.6863L29.3726 32.795L29.4197 32.5621L29.2627 32.3836L29.4982 32.3603L29.608 32.1429L29.7022 32.3681L29.9376 32.4069L29.7649 32.5699M24.3663 32.1197L24.2329 32.042L24.0995 32.1041L24.1309 31.9566L24.0289 31.848L24.178 31.8324L24.2408 31.7005L24.3035 31.8402L24.4526 31.8635L24.3428 31.9644M37.5098 35.4886L37.3058 35.3721L37.0939 35.4808L37.141 35.2479L36.9762 35.0694L37.2116 35.0384L37.3215 34.8288L37.4235 35.0461L37.6589 35.0927L37.4784 35.2479M35.8463 35.7137L35.6736 35.605L35.4932 35.6982L35.5324 35.4963L35.399 35.3566L35.5952 35.3333L35.6893 35.1548L35.7678 35.3411L35.964 35.3721L35.8149 35.5119M36.6309 35.6904L36.474 35.5973L36.3092 35.6749L36.3406 35.4963L36.2151 35.3644L36.3955 35.3411L36.4819 35.1858L36.5603 35.3411L36.7408 35.3799L36.6074 35.5041M38.8908 33.7343L38.7339 33.6566L38.577 33.7343L38.6162 33.5557L38.4907 33.4238L38.6711 33.4005L38.7496 33.2452L38.8281 33.4082L38.9929 33.4393L38.8673 33.5635M35.8227 36.8082L35.6265 36.6995L35.4147 36.7927L35.4618 36.5753L35.3048 36.4201L35.5402 36.3968L35.6422 36.2027L35.7364 36.4046L35.9718 36.4434L35.7913 36.5909M35.8384 37.6931L35.6501 37.5845L35.4618 37.6854L35.5088 37.468L35.3598 37.3128L35.5716 37.2817L35.6658 37.0877L35.7521 37.2895L35.964 37.3283L35.807 37.4835M34.3161 35.6904L34.167 35.5973L34.0101 35.6749L34.0415 35.5041L33.9238 35.3721L34.0964 35.3566L34.1749 35.2014L34.2533 35.3566L34.426 35.3877L34.3004 35.5119M32.9037 35.6904L32.7468 35.5973L32.5898 35.6749L32.629 35.5041L32.5035 35.3721L32.684 35.3566L32.7624 35.2014L32.8409 35.3566L33.0057 35.3877L32.8801 35.5119M30.4947 33.6023L30.3378 33.5169L30.1808 33.5945L30.2201 33.416L30.0945 33.2918L30.2671 33.2685L30.3456 33.1133L30.4241 33.2685L30.5967 33.3073L30.4712 33.4238M30.7615 37.8484L30.6359 37.7785L30.4947 37.8484L30.5261 37.6931L30.4241 37.5845L30.5732 37.5689L30.6438 37.437L30.7066 37.5767L30.8557 37.6L30.7458 37.7009M27.1206 30.9786L26.8067 30.8L26.4928 30.9553L26.5634 30.606L26.3123 30.3498L26.6654 30.3032L26.8381 29.9927L26.9872 30.3188L27.3324 30.3809L27.0735 30.6215" fill="#FFFFEF"/>
<path fill-rule="evenodd" clip-rule="evenodd" d="M39.7613 33.5563C39.9557 33.0573 40.1079 32.5432 40.2164 32.0193C34.8962 27.4006 28.9719 25.0331 21.486 25.5221C21.2145 26.0418 20.9912 26.5848 20.819 27.1445C29.6859 26.3061 36.1988 30.1874 39.7613 33.5563Z" fill="white"/>
<path d="M37.3749 30.9626L37.5554 31.0635C37.5285 31.1162 37.5202 31.1763 37.5319 31.2342C37.5503 31.2904 37.5896 31.3376 37.6417 31.3662C37.6967 31.405 37.7516 31.4283 37.7987 31.4205C37.8457 31.4205 37.8771 31.3973 37.9007 31.3662C37.9144 31.3456 37.9199 31.3207 37.9164 31.2963C37.91 31.2677 37.8965 31.241 37.8771 31.2187C37.8614 31.1954 37.8222 31.1411 37.7594 31.079C37.695 31.0131 37.6466 30.9334 37.6182 30.8461C37.5986 30.78 37.6037 30.7092 37.6325 30.6465C37.6613 30.5838 37.7119 30.5334 37.7751 30.5046C37.8322 30.481 37.8953 30.4756 37.9556 30.489C38.0294 30.5059 38.0989 30.5375 38.1596 30.5822C38.2695 30.6598 38.3401 30.7374 38.3636 30.8306C38.3745 30.8742 38.3759 30.9195 38.3678 30.9637C38.3597 31.0078 38.3422 31.0497 38.3166 31.0868L38.1282 30.9703C38.1518 30.9237 38.1596 30.8772 38.1439 30.8384C38.1361 30.7995 38.1047 30.7607 38.0498 30.7297C38.0095 30.6976 37.9602 30.6786 37.9085 30.6753C37.8943 30.6748 37.8802 30.6782 37.8678 30.6851C37.8554 30.6919 37.8451 30.702 37.8379 30.7142C37.8222 30.7374 37.8222 30.7607 37.8301 30.7918C37.8379 30.8228 37.8771 30.8849 37.9556 30.9626C38.0341 31.0402 38.0812 31.11 38.1125 31.1566C38.1406 31.2075 38.1533 31.2652 38.1491 31.323C38.1449 31.3809 38.1241 31.4363 38.089 31.4826C38.0523 31.5354 38.0004 31.576 37.9399 31.5991C37.8811 31.6259 37.8153 31.634 37.7516 31.6224C37.681 31.6068 37.6103 31.5758 37.5319 31.5215C37.4142 31.4438 37.3435 31.3584 37.32 31.2653C37.2945 31.1597 37.3113 31.0484 37.3671 30.9548L37.3749 30.9626ZM36.4647 30.3726L36.6609 30.4735C36.6366 30.5271 36.6311 30.5872 36.6452 30.6443C36.6653 30.6976 36.7043 30.7417 36.755 30.7685C36.8178 30.8073 36.8649 30.8228 36.912 30.8151C36.9591 30.8151 36.9904 30.7918 37.014 30.753C37.0259 30.7345 37.0314 30.7127 37.0297 30.6909C37.0297 30.6676 37.014 30.6365 36.9904 30.6132C36.9503 30.5652 36.9084 30.5187 36.8649 30.4735C36.7786 30.3881 36.7236 30.3183 36.708 30.2562C36.6951 30.2162 36.6913 30.174 36.6967 30.1324C36.7021 30.0909 36.7167 30.0509 36.7393 30.0155C36.7692 29.9677 36.813 29.9298 36.8649 29.9069C36.9188 29.8823 36.979 29.8741 37.0375 29.8836C37.1102 29.8957 37.1795 29.9221 37.2415 29.9612C37.3592 30.0388 37.4299 30.1164 37.4534 30.2018C37.4677 30.2455 37.4723 30.2916 37.4669 30.3372C37.4615 30.3827 37.4462 30.4266 37.422 30.4658L37.2258 30.3571C37.2494 30.3027 37.2572 30.2639 37.2415 30.2251C37.2258 30.1863 37.1945 30.1475 37.1395 30.1164C37.0962 30.0856 37.0439 30.0693 36.9904 30.0699C36.9776 30.0707 36.9651 30.0747 36.9542 30.0815C36.9432 30.0883 36.9341 30.0976 36.9277 30.1087C36.912 30.132 36.912 30.1553 36.9198 30.1863C36.9277 30.2174 36.9747 30.2795 37.0532 30.3571C37.1317 30.4347 37.1866 30.4968 37.2102 30.5434C37.2416 30.5921 37.2583 30.6486 37.2583 30.7064C37.2583 30.7641 37.2416 30.8207 37.2102 30.8694C37.1764 30.9236 37.1273 30.9667 37.0689 30.9936C37.0101 31.0204 36.9443 31.0286 36.8806 31.0169C36.7999 31.0034 36.7225 30.9744 36.653 30.9315C36.5516 30.878 36.4735 30.7897 36.4333 30.6831C36.403 30.5795 36.4142 30.4682 36.4647 30.3726ZM35.3504 30.0776L35.9233 29.1461L36.6138 29.5731L36.5196 29.7283L36.0174 29.4178L35.8919 29.6274L36.3627 29.9146L36.2607 30.0699L35.7899 29.7827L35.6329 30.0388L36.1587 30.3493L36.0645 30.5046L35.3583 30.0776H35.3504ZM33.7261 28.758L33.8125 28.6028L34.2362 28.8123L34.04 29.2005C33.9772 29.216 33.8988 29.2238 33.8046 29.216C33.7142 29.2061 33.6265 29.1798 33.5457 29.1384C33.4508 29.0926 33.3696 29.023 33.3103 28.9365C33.2563 28.8562 33.2289 28.7613 33.2318 28.6649C33.2358 28.5645 33.2626 28.4663 33.3103 28.3776C33.3574 28.2843 33.4276 28.2042 33.5143 28.1448C33.5973 28.088 33.696 28.0582 33.7968 28.0594C33.8752 28.0594 33.9537 28.0827 34.0479 28.137C34.1734 28.1913 34.2519 28.269 34.2911 28.3544C34.3319 28.4391 34.3403 28.5356 34.3147 28.626L34.1028 28.5639C34.1158 28.512 34.1103 28.4571 34.0871 28.4087C34.0636 28.3621 34.0243 28.3311 33.9616 28.3C33.925 28.2793 33.8844 28.2666 33.8425 28.2626C33.8005 28.2586 33.7582 28.2634 33.7183 28.2767C33.6398 28.3 33.5692 28.3699 33.5143 28.4786C33.4594 28.5872 33.4358 28.6881 33.4594 28.7735C33.4702 28.814 33.4899 28.8517 33.517 28.8839C33.5441 28.9161 33.578 28.942 33.6163 28.9598C33.6555 28.9831 33.7026 28.9986 33.7497 28.9986C33.7965 29.0057 33.8442 29.0057 33.8909 28.9986L33.9537 28.8744L33.7261 28.758ZM26.6483 27.027L26.8052 25.9402L27.1348 25.9946L27.2211 26.7553L27.5271 26.0567L27.8567 26.1032L27.6998 27.1745L27.4879 27.1434L27.6213 26.2973L27.276 27.1124L27.0642 27.0813L26.9778 26.2041L26.8523 27.058L26.6483 27.027ZM25.5419 26.895L25.6439 25.8083L26.4521 25.8859L26.4364 26.0722L25.8479 26.0178L25.8244 26.2507L26.3736 26.3051L26.3501 26.4914L25.8008 26.437L25.7773 26.732L26.3893 26.7863L26.3736 26.9726L25.5419 26.895Z" fill="#309E3A"/>
<path d="M21.8777 26.2192C21.8777 26.1028 21.9013 26.0174 21.9327 25.9397C21.9602 25.8845 21.9973 25.8346 22.0425 25.7923C22.0828 25.7521 22.1308 25.7204 22.1838 25.6991C22.2622 25.6758 22.3407 25.6603 22.4192 25.6603C22.584 25.6603 22.7095 25.7224 22.8115 25.8155C22.86 25.8749 22.8961 25.9432 22.9177 26.0165C22.9393 26.0898 22.9458 26.1667 22.9371 26.2425C22.9371 26.4133 22.8821 26.553 22.7801 26.6539C22.7277 26.7018 22.6657 26.7383 22.5981 26.7611C22.5305 26.7838 22.4588 26.7923 22.3878 26.7859C22.3176 26.7865 22.248 26.7732 22.1833 26.7465C22.1186 26.7198 22.06 26.6803 22.0111 26.6306C21.9135 26.5163 21.8655 26.3684 21.8777 26.2192Z" fill="#309E3A"/>
<path d="M22.1063 26.2198C22.1063 26.3363 22.1299 26.4294 22.1848 26.4993C22.2397 26.5614 22.3103 26.6002 22.4045 26.6002C22.4452 26.603 22.4861 26.5968 22.5241 26.582C22.5621 26.5673 22.5963 26.5443 22.6242 26.5148C22.6791 26.4527 22.7027 26.3595 22.7105 26.2276C22.7105 26.1034 22.6948 26.0102 22.6321 25.9481C22.6065 25.9168 22.5742 25.8916 22.5376 25.8741C22.5009 25.8567 22.4609 25.8475 22.4202 25.8472C22.3789 25.8459 22.3378 25.8536 22.2999 25.8697C22.2619 25.8858 22.228 25.9099 22.2005 25.9404C22.1377 26.0025 22.1142 26.0956 22.1063 26.2198Z" fill="#F7FFFF"/>
<path d="M23.1731 26.7786L23.1888 25.6918H23.6596C23.7773 25.6918 23.8558 25.7074 23.9107 25.7306C23.9656 25.7462 24.0049 25.785 24.0363 25.8316C24.0676 25.8781 24.0833 25.9402 24.0833 26.0101C24.084 26.0848 24.0559 26.1569 24.0049 26.2119C23.9469 26.2657 23.8722 26.2985 23.793 26.3051L23.9107 26.3982C23.9421 26.4293 23.9813 26.4914 24.0284 26.5768L24.1618 26.7941H23.895L23.7381 26.5457L23.6282 26.3905C23.6092 26.3691 23.5848 26.353 23.5576 26.3439C23.5219 26.3336 23.4849 26.3284 23.4477 26.3284H23.4007V26.7786H23.1731Z" fill="#309E3A"/>
<path d="M23.4084 26.1581H23.5654C23.6752 26.1581 23.7459 26.1581 23.7694 26.1425C23.7929 26.1425 23.8165 26.1193 23.8322 26.1037C23.8479 26.0882 23.8557 26.0494 23.8557 26.0261C23.8557 25.9795 23.8479 25.9485 23.8243 25.933C23.8086 25.9097 23.7772 25.8941 23.7459 25.8864H23.5889L23.4084 25.8786V26.1503V26.1581Z" fill="white"/>
<path d="M24.4296 25.7452L24.8376 25.7685C24.9239 25.7685 24.9945 25.7762 25.0416 25.7917C25.1027 25.8137 25.1568 25.8512 25.1986 25.9004C25.2438 25.9547 25.276 26.0184 25.2927 26.0867C25.3163 26.1566 25.3241 26.242 25.3163 26.3429C25.3161 26.4221 25.3029 26.5008 25.277 26.5758C25.2456 26.6534 25.1986 26.7155 25.1436 26.7621C25.0979 26.7993 25.0443 26.8259 24.9867 26.8397C24.9396 26.8552 24.869 26.8552 24.7905 26.8552L24.3746 26.8319L24.4296 25.7452Z" fill="#309E3A"/>
<path d="M24.6419 25.9392L24.6027 26.6611H24.9008C24.9401 26.6611 24.9715 26.6456 24.995 26.6223C25.0185 26.599 25.0421 26.568 25.0578 26.5214C25.0735 26.4748 25.0892 26.405 25.0892 26.3196L25.0813 26.1255C25.0701 26.0846 25.0486 26.0472 25.0185 26.0168C24.9925 25.991 24.96 25.9722 24.9244 25.9625C24.8651 25.9495 24.8047 25.9416 24.7439 25.9392H24.6419Z" fill="white"/>
<path d="M29.811 27.6863L30.07 26.6306L30.4152 26.7082L30.6663 26.7858C30.7213 26.8169 30.7684 26.8635 30.7919 26.9333C30.8233 26.9954 30.8233 27.0653 30.8076 27.1507C30.7919 27.2128 30.7684 27.2671 30.7291 27.3059C30.7004 27.34 30.6643 27.3674 30.6237 27.3862C30.583 27.405 30.5386 27.4147 30.4937 27.4146C30.4388 27.4146 30.3603 27.3991 30.2583 27.3758L30.1249 27.337L30.0307 27.7406L29.811 27.6863Z" fill="#309E3A"/>
<path d="M30.2343 26.8635L30.1715 27.1585L30.2892 27.1895C30.3677 27.205 30.4305 27.2206 30.4618 27.2128C30.4924 27.2086 30.5209 27.1952 30.5433 27.1743C30.5658 27.1535 30.5812 27.1262 30.5874 27.0964C30.5874 27.0575 30.5874 27.0265 30.5717 26.9954C30.5545 26.9639 30.5268 26.9392 30.4932 26.9256L30.3441 26.8868L30.2421 26.8635H30.2343Z" fill="white"/>
<path d="M30.8311 27.99L31.1999 26.9654L31.6314 27.1206C31.7491 27.1594 31.8198 27.1982 31.8668 27.2293C31.9061 27.2681 31.9375 27.3069 31.9453 27.369C31.9532 27.4311 31.961 27.4854 31.9453 27.5475C31.9139 27.6252 31.8668 27.6795 31.8041 27.7183C31.7413 27.7494 31.6628 27.7571 31.5687 27.7416C31.6 27.7804 31.6314 27.8192 31.6471 27.8658L31.7099 28.0754L31.757 28.316L31.5137 28.2306L31.4353 27.9512C31.421 27.888 31.4027 27.8258 31.3803 27.7649C31.3699 27.7407 31.3538 27.7194 31.3333 27.7028C31.3176 27.6795 31.2862 27.664 31.2312 27.6485L31.192 27.6329L31.0351 28.0676L30.8311 27.99Z" fill="#309E3A"/>
<path d="M31.2558 27.469L31.4049 27.5233C31.5069 27.5621 31.5696 27.5776 31.601 27.5776C31.6246 27.5776 31.6481 27.5776 31.6717 27.5543C31.6952 27.5388 31.7109 27.5155 31.7187 27.4845C31.7344 27.4534 31.7344 27.4224 31.7187 27.3913C31.7071 27.3613 31.6848 27.3364 31.656 27.3215L31.499 27.2671L31.3421 27.2128L31.2479 27.469H31.2558Z" fill="white"/>
<path d="M32.118 27.9497C32.145 27.8589 32.1904 27.7743 32.2514 27.7013C32.2911 27.6545 32.3389 27.6151 32.3926 27.5849C32.4413 27.5577 32.4945 27.5393 32.5496 27.5305C32.628 27.5305 32.7065 27.5305 32.7928 27.5616C32.863 27.5788 32.9286 27.6105 32.9855 27.6547C33.0423 27.6988 33.0889 27.7544 33.1224 27.8177C33.1852 27.9419 33.1852 28.0894 33.1381 28.2602C33.0993 28.407 33.0034 28.5325 32.8713 28.6095C32.7536 28.6794 32.6124 28.6871 32.4633 28.6406C32.3933 28.623 32.3279 28.5911 32.2711 28.547C32.2144 28.5028 32.1676 28.4475 32.1337 28.3844C32.1023 28.3166 32.0847 28.2433 32.082 28.1686C32.0793 28.094 32.0916 28.0196 32.118 27.9497Z" fill="#309E3A"/>
<path d="M32.3388 28.0116C32.3074 28.1281 32.2996 28.229 32.3388 28.3066C32.3781 28.3842 32.433 28.4308 32.5193 28.4618C32.5978 28.4851 32.6762 28.4774 32.7547 28.4308C32.8332 28.392 32.8803 28.3066 32.9195 28.1824C32.9587 28.066 32.9587 27.9728 32.9195 27.8952C32.904 27.8584 32.8805 27.8253 32.8507 27.7985C32.8209 27.7717 32.7854 27.7517 32.7469 27.7399C32.7083 27.7267 32.6672 27.722 32.6266 27.726C32.586 27.73 32.5467 27.7427 32.5115 27.7632C32.433 27.8098 32.3781 27.8874 32.3388 28.0116Z" fill="white"/>
<path d="M34.2617 29.4634L34.7639 28.5008L35.1798 28.7104C35.2581 28.7477 35.3298 28.7975 35.3917 28.8579C35.4309 28.8967 35.4544 28.9433 35.4544 29.0054C35.4544 29.0675 35.4544 29.1218 35.4231 29.1762C35.3929 29.246 35.3367 29.3016 35.2661 29.3314C35.1876 29.347 35.1092 29.347 35.0229 29.3159C35.0543 29.3625 35.0699 29.4091 35.0856 29.4479C35.1013 29.4944 35.1092 29.5643 35.117 29.6652L35.1327 29.9136L34.8973 29.7972L34.8659 29.51C34.8622 29.4449 34.8543 29.3801 34.8424 29.3159C34.837 29.2869 34.8234 29.2599 34.8032 29.2383L34.709 29.1839L34.6698 29.1607L34.4579 29.5643L34.2617 29.4634Z" fill="#309E3A"/>
<path d="M34.7472 29.0064L34.8963 29.084C34.9904 29.1306 35.0532 29.1617 35.0768 29.1617C35.1003 29.1617 35.1317 29.1617 35.1552 29.1461C35.1788 29.1384 35.1945 29.1151 35.2102 29.084C35.2259 29.053 35.2337 29.0219 35.2259 28.9909C35.2162 28.96 35.197 28.9328 35.1709 28.9133C35.125 28.8854 35.0779 28.8595 35.0297 28.8356L34.8727 28.758L34.7472 29.0064Z" fill="white"/>
<path d="M38.3261 31.452C38.3768 31.3722 38.4436 31.3035 38.5223 31.2501C38.5751 31.2167 38.6335 31.1931 38.6949 31.1803C38.7519 31.1688 38.8106 31.1688 38.8676 31.1803C38.946 31.1958 39.0166 31.2269 39.0873 31.2734C39.1483 31.3111 39.2008 31.3609 39.2413 31.4197C39.2819 31.4785 39.3096 31.545 39.3227 31.615C39.3462 31.7469 39.307 31.8944 39.2128 32.0419C39.134 32.1702 39.007 32.2623 38.8597 32.2981C38.7894 32.3131 38.7168 32.3132 38.6465 32.2985C38.5761 32.2838 38.5097 32.2545 38.4517 32.2127C38.3906 32.1751 38.3381 32.1253 38.2976 32.0664C38.2571 32.0076 38.2293 31.9411 38.2163 31.8711C38.1927 31.7314 38.232 31.5917 38.3261 31.452Z" fill="#309E3A"/>
<path d="M38.5212 31.5765C38.4427 31.6774 38.4192 31.7706 38.4349 31.856C38.4407 31.8953 38.4548 31.9329 38.4765 31.9664C38.4982 31.9999 38.5268 32.0284 38.5604 32.05C38.6389 32.1044 38.7174 32.1199 38.7958 32.0966C38.8743 32.0733 38.9528 32.019 39.0234 31.9103C39.094 31.8016 39.1254 31.7085 39.1097 31.6309C39.1019 31.5532 39.0548 31.4834 38.9842 31.429C38.9135 31.3747 38.8272 31.3669 38.7488 31.3902C38.6703 31.4058 38.5918 31.4679 38.5134 31.5765H38.5212Z" fill="white"/>
<path d="M28.5726 27.2433L28.7531 26.4826L29.3181 26.6146L29.2945 26.7388L28.8787 26.6456L28.8394 26.8164L29.2239 26.9018L29.1925 27.0337L28.808 26.9406L28.761 27.1502L29.1925 27.2511L29.1611 27.3753L28.5726 27.2433Z" fill="#309E3A"/>
</g>
<defs>
<clipPath id="clip0_0_2352">
<rect width="60" height="60" rx="30" fill="white"/>
</clipPath>
</defs>
</svg>
