<svg width="60" height="60" viewBox="0 0 60 60" fill="none" xmlns="http://www.w3.org/2000/svg">
<g clip-path="url(#clip0_0_2882)">
<path d="M0 0H80V60H0V0Z" fill="#EE1C25"/>
<path d="M9.59995 26.2L14.9999 10L20.3998 26.2L6 16.3H23.9998L9.59995 26.2Z" fill="#FFFF00"/>
<path d="M33.0231 10.3123L27.4659 11.5438L31.1727 7.22421L30.8092 13.0378L27.7253 7.89102L33.0231 10.3123Z" fill="#FFFF00"/>
<path d="M38.6298 17.4174L33.0299 16.3972L38.1219 13.8534L35.5321 19.0709L34.6857 13.1309L38.6298 17.4174Z" fill="#FFFF00"/>
<path d="M37.8108 27.3897L33.1139 24.1742L38.8007 23.9284L34.3081 27.636L35.9579 21.8673L37.8108 27.3897Z" fill="#FFFF00"/>
<path d="M30.7467 33.9068L27.6561 29.1268L32.9965 31.0965L27.4206 32.7812L31.1704 28.0973L30.7467 33.9068Z" fill="#FFFF00"/>
</g>
<defs>
<clipPath id="clip0_0_2882">
<rect width="60" height="60" rx="30" fill="white"/>
</clipPath>
</defs>
</svg>
