<svg width="60" height="60" viewBox="0 0 60 60" fill="none" xmlns="http://www.w3.org/2000/svg">
<g clip-path="url(#clip0_0_6209)">
<g clip-path="url(#clip1_0_6209)">
<mask id="mask0_0_6209" style="mask-type:luminance" maskUnits="userSpaceOnUse" x="-10" y="0" width="80" height="60">
<path d="M70 0H-10V60H70V0Z" fill="white"/>
</mask>
<g mask="url(#mask0_0_6209)">
<path d="M-10 0H70V20H-10V0Z" fill="#FF9933"/>
<path d="M-10 20H70V40H-10V20Z" fill="white"/>
<path d="M-10 40H70V60H-10V40Z" fill="#128807"/>
<path d="M30 38C34.4183 38 38 34.4183 38 30C38 25.5817 34.4183 22 30 22C25.5817 22 22 25.5817 22 30C22 34.4183 25.5817 38 30 38Z" fill="#000088"/>
<path d="M30 37C33.866 37 37 33.866 37 30C37 26.134 33.866 23 30 23C26.134 23 23 26.134 23 30C23 33.866 26.134 37 30 37Z" fill="white"/>
<path d="M29.9977 31.3977C30.7709 31.3977 31.3977 30.7709 31.3977 29.9977C31.3977 29.2245 30.7709 28.5977 29.9977 28.5977C29.2245 28.5977 28.5977 29.2245 28.5977 29.9977C28.5977 30.7709 29.2245 31.3977 29.9977 31.3977Z" fill="#000088"/>
<path d="M36.8958 31.2685C37.0929 31.2945 37.2737 31.1557 37.2997 30.9586C37.3256 30.7615 37.1869 30.5807 36.9897 30.5547C36.7926 30.5288 36.6118 30.6675 36.5858 30.8646C36.5599 31.0618 36.6986 31.2426 36.8958 31.2685Z" fill="#000088"/>
<path d="M30.0017 36.9969L30.2417 32.7969L30.0017 30.7969L29.7617 32.7969L30.0017 36.9969Z" fill="#000088"/>
<path d="M36.3305 33.01C36.5142 33.0861 36.7248 32.9988 36.8009 32.8152C36.877 32.6315 36.7897 32.4209 36.606 32.3448C36.4223 32.2687 36.2118 32.3559 36.1357 32.5396C36.0596 32.7233 36.1468 32.9339 36.3305 33.01Z" fill="#000088"/>
<path d="M28.1896 36.7578L29.5085 32.763L29.7943 30.769L29.0449 32.6388L28.1896 36.7578Z" fill="#000088"/>
<path d="M35.3317 34.5443C35.4894 34.6653 35.7154 34.6356 35.8364 34.4778C35.9575 34.3201 35.9277 34.0941 35.77 33.9731C35.6122 33.852 35.3863 33.8818 35.2652 34.0395C35.1442 34.1972 35.1739 34.4232 35.3317 34.5443Z" fill="#000088"/>
<path d="M26.4985 36.0597L28.8063 32.5424L29.5985 30.6903L28.3906 32.3024L26.4985 36.0597Z" fill="#000088"/>
<path d="M33.9722 35.7747C34.0932 35.9324 34.3192 35.9622 34.4769 35.8411C34.6347 35.7201 34.6644 35.4941 34.5434 35.3364C34.4223 35.1787 34.1963 35.1489 34.0386 35.2699C33.8809 35.391 33.8511 35.617 33.9722 35.7747Z" fill="#000088"/>
<path d="M25.0474 34.9483L28.1869 32.1482L29.4314 30.5642L27.8475 31.8087L25.0474 34.9483Z" fill="#000088"/>
<path d="M32.3437 36.6043C32.4198 36.788 32.6303 36.8752 32.814 36.7992C32.9977 36.7231 33.0849 36.5125 33.0089 36.3288C32.9328 36.1451 32.7222 36.0579 32.5385 36.134C32.3548 36.21 32.2676 36.4206 32.3437 36.6043Z" fill="#000088"/>
<path d="M23.9381 33.4993L27.6954 31.6071L29.3075 30.3993L27.4554 31.1914L23.9381 33.4993Z" fill="#000088"/>
<path d="M30.5558 36.9861C30.5818 37.1832 30.7626 37.3219 30.9597 37.296C31.1568 37.27 31.2956 37.0892 31.2696 36.8921C31.2437 36.695 31.0629 36.5562 30.8657 36.5821C30.6686 36.6081 30.5299 36.7889 30.5558 36.9861Z" fill="#000088"/>
<path d="M23.2413 31.8092L27.3604 30.9539L29.2301 30.2045L27.2361 30.4903L23.2413 31.8092Z" fill="#000088"/>
<path d="M28.7314 36.8917C28.7054 37.0889 28.8442 37.2697 29.0413 37.2957C29.2384 37.3216 29.4192 37.1828 29.4452 36.9857C29.4711 36.7886 29.3324 36.6078 29.1353 36.5818C28.9381 36.5559 28.7573 36.6946 28.7314 36.8917Z" fill="#000088"/>
<path d="M23.0031 29.9978L27.2031 30.2378L29.2031 29.9978L27.2031 29.7578L23.0031 29.9978Z" fill="#000088"/>
<path d="M26.99 36.3266C26.9139 36.5103 27.0012 36.7209 27.1848 36.797C27.3685 36.873 27.5791 36.7858 27.6552 36.6021C27.7313 36.4184 27.6441 36.2079 27.4604 36.1318C27.2767 36.0557 27.0661 36.1429 26.99 36.3266Z" fill="#000088"/>
<path d="M23.2421 28.1857L27.2369 29.5046L29.2309 29.7904L27.3611 29.041L23.2421 28.1857Z" fill="#000088"/>
<path d="M25.4518 35.3317C25.3308 35.4894 25.3605 35.7154 25.5183 35.8364C25.676 35.9575 25.902 35.9277 26.023 35.77C26.1441 35.6122 26.1143 35.3863 25.9566 35.2652C25.7988 35.1442 25.5729 35.1739 25.4518 35.3317Z" fill="#000088"/>
<path d="M23.9364 26.4985L27.4537 28.8063L29.3058 29.5985L27.6937 28.3906L23.9364 26.4985Z" fill="#000088"/>
<path d="M24.2214 33.9722C24.0637 34.0932 24.0339 34.3192 24.1549 34.4769C24.276 34.6347 24.502 34.6644 24.6597 34.5434C24.8174 34.4223 24.8472 34.1963 24.7262 34.0386C24.6051 33.8809 24.3791 33.8511 24.2214 33.9722Z" fill="#000088"/>
<path d="M25.0478 25.0474L27.8479 28.1869L29.4319 29.4314L28.1873 27.8475L25.0478 25.0474Z" fill="#000088"/>
<path d="M23.3919 32.3398C23.2082 32.4158 23.121 32.6264 23.197 32.8101C23.2731 32.9938 23.4837 33.081 23.6674 33.005C23.8511 32.9289 23.9383 32.7183 23.8622 32.5346C23.7861 32.3509 23.5756 32.2637 23.3919 32.3398Z" fill="#000088"/>
<path d="M26.4968 23.9342L28.389 27.6915L29.5968 29.3036L28.8047 27.4515L26.4968 23.9342Z" fill="#000088"/>
<path d="M23.01 30.552C22.8129 30.578 22.6742 30.7588 22.7001 30.9559C22.7261 31.153 22.9069 31.2918 23.104 31.2658C23.3011 31.2399 23.4399 31.0591 23.4139 30.8619C23.388 30.6648 23.2072 30.526 23.01 30.552Z" fill="#000088"/>
<path d="M28.1869 23.2374L29.0422 27.3564L29.7916 29.2262L29.5058 27.2322L28.1869 23.2374Z" fill="#000088"/>
<path d="M23.1042 28.7314C22.9071 28.7054 22.7263 28.8442 22.7003 29.0413C22.6744 29.2384 22.8131 29.4192 23.0103 29.4452C23.2074 29.4711 23.3882 29.3324 23.4142 29.1353C23.4401 28.9381 23.3014 28.7573 23.1042 28.7314Z" fill="#000088"/>
<path d="M29.9983 23.0031L29.7583 27.2031L29.9983 29.2031L30.2383 27.2031L29.9983 23.0031Z" fill="#000088"/>
<path d="M23.6695 26.99C23.4858 26.9139 23.2752 27.0012 23.1991 27.1848C23.123 27.3685 23.2103 27.5791 23.394 27.6552C23.5777 27.7313 23.7882 27.6441 23.8643 27.4604C23.9404 27.2767 23.8532 27.0661 23.6695 26.99Z" fill="#000088"/>
<path d="M31.8104 23.2421L30.4915 27.2369L30.2057 29.2309L30.9551 27.3611L31.8104 23.2421Z" fill="#000088"/>
<path d="M24.6683 25.4557C24.5106 25.3347 24.2846 25.3644 24.1636 25.5222C24.0425 25.6799 24.0723 25.9059 24.23 26.0269C24.3878 26.148 24.6137 26.1182 24.7348 25.9605C24.8558 25.8028 24.8261 25.5768 24.6683 25.4557Z" fill="#000088"/>
<path d="M33.5015 23.9403L31.1937 27.4576L30.4015 29.3097L31.6094 27.6976L33.5015 23.9403Z" fill="#000088"/>
<path d="M26.0278 24.2253C25.9068 24.0676 25.6808 24.0378 25.5231 24.1589C25.3653 24.2799 25.3356 24.5059 25.4566 24.6636C25.5777 24.8213 25.8037 24.8511 25.9614 24.7301C26.1191 24.609 26.1489 24.383 26.0278 24.2253Z" fill="#000088"/>
<path d="M34.9526 25.0518L31.8131 27.8519L30.5686 29.4359L32.1525 28.1914L34.9526 25.0518Z" fill="#000088"/>
<path d="M27.6563 23.3919C27.5802 23.2082 27.3697 23.121 27.186 23.197C27.0023 23.2731 26.9151 23.4837 26.9911 23.6674C27.0672 23.8511 27.2778 23.9383 27.4615 23.8622C27.6452 23.7861 27.7324 23.5756 27.6563 23.3919Z" fill="#000088"/>
<path d="M36.0619 26.4968L32.3046 28.389L30.6925 29.5968L32.5446 28.8047L36.0619 26.4968Z" fill="#000088"/>
<path d="M29.4442 23.01C29.4182 22.8129 29.2374 22.6742 29.0403 22.7001C28.8432 22.7261 28.7044 22.9069 28.7304 23.104C28.7563 23.3011 28.9371 23.4399 29.1343 23.4139C29.3314 23.388 29.4701 23.2072 29.4442 23.01Z" fill="#000088"/>
<path d="M36.7587 28.1869L32.6396 29.0422L30.7699 29.7916L32.7639 29.5058L36.7587 28.1869Z" fill="#000088"/>
<path d="M31.2686 23.1042C31.2946 22.9071 31.1558 22.7263 30.9587 22.7003C30.7616 22.6744 30.5808 22.8131 30.5548 23.0103C30.5289 23.2074 30.6676 23.3882 30.8647 23.4142C31.0619 23.4401 31.2427 23.3014 31.2686 23.1042Z" fill="#000088"/>
<path d="M36.9969 29.9983L32.7969 29.7583L30.7969 29.9983L32.7969 30.2383L36.9969 29.9983Z" fill="#000088"/>
<path d="M33.01 23.6695C33.0861 23.4858 32.9988 23.2752 32.8152 23.1991C32.6315 23.123 32.4209 23.2103 32.3448 23.394C32.2687 23.5777 32.3559 23.7882 32.5396 23.8643C32.7233 23.9404 32.9339 23.8532 33.01 23.6695Z" fill="#000088"/>
<path d="M36.7579 31.8104L32.7631 30.4915L30.7691 30.2057L32.6389 30.9551L36.7579 31.8104Z" fill="#000088"/>
<path d="M34.5482 24.6644C34.6692 24.5067 34.6395 24.2807 34.4817 24.1597C34.324 24.0386 34.098 24.0684 33.977 24.2261C33.8559 24.3838 33.8857 24.6098 34.0434 24.7309C34.2012 24.8519 34.4271 24.8222 34.5482 24.6644Z" fill="#000088"/>
<path d="M36.0636 33.4976L32.5463 31.1898L30.6942 30.3976L32.3063 31.6055L36.0636 33.4976Z" fill="#000088"/>
<path d="M35.7786 26.0239C35.9363 25.9029 35.9661 25.6769 35.8451 25.5192C35.724 25.3614 35.498 25.3317 35.3403 25.4527C35.1826 25.5738 35.1528 25.7997 35.2738 25.9575C35.3949 26.1152 35.6209 26.145 35.7786 26.0239Z" fill="#000088"/>
<path d="M34.9522 34.9487L32.1521 31.8092L30.5681 30.5647L31.8127 32.1486L34.9522 34.9487Z" fill="#000088"/>
<path d="M36.6081 27.6563C36.7918 27.5802 36.879 27.3697 36.803 27.186C36.7269 27.0023 36.5163 26.9151 36.3326 26.9911C36.1489 27.0672 36.0617 27.2778 36.1378 27.4615C36.2139 27.6452 36.4244 27.7324 36.6081 27.6563Z" fill="#000088"/>
<path d="M33.5032 36.0619L31.611 32.3046L30.4032 30.6925L31.1953 32.5446L33.5032 36.0619Z" fill="#000088"/>
<path d="M36.99 29.4442C37.1871 29.4182 37.3258 29.2374 37.2999 29.0403C37.2739 28.8432 37.0931 28.7044 36.896 28.7304C36.6989 28.7563 36.5601 28.9371 36.5861 29.1343C36.612 29.3314 36.7928 29.4701 36.99 29.4442Z" fill="#000088"/>
<path d="M31.8131 36.7587L30.9578 32.6396L30.2084 30.7699L30.4942 32.7639L31.8131 36.7587Z" fill="#000088"/>
</g>
</g>
</g>
<defs>
<clipPath id="clip0_0_6209">
<rect width="60" height="60" rx="30" fill="white"/>
</clipPath>
<clipPath id="clip1_0_6209">
<rect width="80" height="60" fill="white" transform="translate(-10)"/>
</clipPath>
</defs>
</svg>
