<svg width="15" height="14" viewBox="0 0 15 14" fill="none" xmlns="http://www.w3.org/2000/svg">
<path d="M14.0696 6.32125L1.31957 0.321253C1.19118 0.260841 1.04829 0.238088 0.907486 0.255636C0.766684 0.273185 0.633749 0.330315 0.524117 0.420392C0.414485 0.510469 0.332655 0.629798 0.288128 0.764521C0.243601 0.899245 0.238205 1.04384 0.272566 1.1815L1.18157 4.81825L7.00007 7L1.18157 9.18175L0.272566 12.8185C0.237558 12.9563 0.242504 13.1012 0.286825 13.2362C0.331146 13.3713 0.413009 13.4909 0.522839 13.5812C0.632668 13.6714 0.765923 13.7285 0.907016 13.7458C1.04811 13.7631 1.1912 13.7398 1.31957 13.6788L14.0696 7.67875C14.1984 7.61819 14.3074 7.5222 14.3837 7.402C14.46 7.28181 14.5005 7.14238 14.5005 7C14.5005 6.85763 14.46 6.7182 14.3837 6.598C14.3074 6.47781 14.1984 6.38182 14.0696 6.32125Z" fill="#4691F2"/>
</svg>
