<svg xmlns="http://www.w3.org/2000/svg" width="23" height="23" viewBox="0 0 23 23">
<g>
<path d="M5.64903 6.91357C2.53954 6.91357 0.00976562 9.44335 0.00976562 12.5528C0.00976562 14.4834 0.928148 16.5592 2.73944 18.7225C2.9952 19.0275 3.26021 19.3246 3.53411 19.6134C2.36462 19.9327 1.66244 20.5062 1.66244 21.1756C1.66244 22.3605 3.71636 23 5.64885 23C7.58139 23 9.63527 22.3605 9.63527 21.1756C9.63527 20.5067 8.93332 19.9331 7.76458 19.6137C8.2315 19.1208 8.73391 18.5408 9.21062 17.894C9.23746 17.8583 9.25696 17.8178 9.26801 17.7746C9.27906 17.7314 9.28143 17.6864 9.27499 17.6423C9.26854 17.5981 9.25341 17.5557 9.23047 17.5175C9.20753 17.4792 9.17723 17.4459 9.14132 17.4195C9.10542 17.393 9.06463 17.3739 9.02131 17.3634C8.97799 17.3528 8.933 17.3509 8.88894 17.3578C8.84489 17.3647 8.80264 17.3803 8.76465 17.4037C8.72666 17.427 8.69367 17.4577 8.6676 17.4938C8.09206 18.2749 7.46909 18.9613 6.92549 19.5065C6.86236 19.5385 6.8109 19.5896 6.77841 19.6525C6.29146 20.131 5.88168 20.486 5.64917 20.68C5.41921 20.4879 5.01568 20.1377 4.53497 19.6654C4.50093 19.5907 4.44083 19.531 4.36593 19.4974C2.83827 17.9609 0.684268 15.3062 0.684268 12.5529C0.684268 9.81539 2.91145 7.58821 5.64899 7.58821C8.38653 7.58821 10.6137 9.81539 10.6137 12.5529C10.6137 13.7484 10.2064 15.0395 9.40297 16.3902C9.38033 16.4283 9.36541 16.4705 9.35906 16.5143C9.35271 16.5581 9.35506 16.6028 9.36597 16.6457C9.37687 16.6887 9.39613 16.729 9.42264 16.7645C9.44914 16.8 9.48238 16.8299 9.52045 16.8525C9.55851 16.8752 9.60067 16.8901 9.6445 16.8965C9.68834 16.9028 9.73299 16.9005 9.77592 16.8895C9.81885 16.8786 9.85921 16.8594 9.89469 16.8329C9.93018 16.8064 9.9601 16.7731 9.98274 16.7351C10.849 15.2785 11.2883 13.8715 11.2883 12.5529C11.2883 9.44335 8.75852 6.91357 5.64903 6.91357ZM5.44262 21.3815C5.50169 21.4273 5.57431 21.4521 5.64903 21.452C5.72376 21.4521 5.79638 21.4273 5.85545 21.3815C5.89682 21.3495 6.46041 20.91 7.21164 20.1755C8.34915 20.4074 8.96081 20.8541 8.96081 21.1756C8.96081 21.4157 8.63171 21.699 8.10195 21.9148C7.4522 22.1796 6.58103 22.3255 5.6489 22.3255C3.62714 22.3255 2.33699 21.6444 2.33699 21.1756C2.33699 20.8536 2.94882 20.4072 4.08697 20.1752C4.84237 20.9141 5.40677 21.3538 5.44262 21.3815Z"></path>
<path d="M5.64915 10.1009C5.1157 10.1009 4.60844 10.2693 4.18222 10.5879C4.1106 10.6415 4.06318 10.7213 4.05039 10.8098C4.0376 10.8984 4.06049 10.9883 4.11403 11.06C4.16761 11.1316 4.24744 11.179 4.33596 11.1918C4.42448 11.2046 4.51446 11.1817 4.58612 11.1282C4.89477 10.8974 5.26237 10.7754 5.6491 10.7754C6.62916 10.7754 7.42648 11.5727 7.42648 12.5528C7.42648 13.5329 6.62916 14.3302 5.6491 14.3302C4.66904 14.3302 3.87172 13.5329 3.87172 12.5528C3.87172 12.3856 3.89486 12.2202 3.94045 12.0615C3.96513 11.9755 3.95465 11.8833 3.91132 11.805C3.86799 11.7268 3.79534 11.6689 3.70938 11.6442C3.6234 11.6196 3.53117 11.6301 3.45294 11.6735C3.37471 11.7168 3.31687 11.7894 3.29214 11.8754C3.22906 12.0957 3.19713 12.3237 3.19727 12.5528C3.19727 13.9048 4.29718 15.0048 5.64919 15.0048C7.00116 15.0048 8.10112 13.9048 8.10112 12.5528C8.10107 11.2008 7.00112 10.1009 5.64915 10.1009ZM20.3471 9.7984C20.5276 9.60501 20.7029 9.40685 20.8728 9.20413C22.2769 7.52706 22.9889 5.91486 22.9889 4.41218C22.9889 1.97935 21.0096 0 18.5767 0C16.7995 0 15.2037 1.05773 14.5114 2.69468C14.4942 2.73547 14.4851 2.77926 14.4848 2.82354C14.4844 2.86783 14.4928 2.91175 14.5095 2.95279C14.5261 2.99383 14.5507 3.0312 14.5818 3.06275C14.6128 3.0943 14.6498 3.11942 14.6906 3.13667C14.773 3.1715 14.8658 3.17218 14.9487 3.13858C15.0316 3.10498 15.0977 3.03984 15.1326 2.95748C15.7192 1.57065 17.0711 0.674502 18.5767 0.674502C20.6377 0.674502 22.3144 2.35126 22.3144 4.41223C22.3144 7.19931 19.3883 9.86952 18.5766 10.5564C18.3977 10.4053 18.1161 10.1578 17.786 9.83421C17.7533 9.76971 17.7007 9.71745 17.636 9.68516C16.4715 8.51265 14.839 6.49714 14.839 4.41223C14.839 4.32278 14.8035 4.23699 14.7403 4.17374C14.677 4.11049 14.5912 4.07495 14.5018 4.07495C14.4123 4.07495 14.3265 4.11049 14.2633 4.17374C14.2 4.23699 14.1645 4.32278 14.1645 4.41223C14.1645 5.91486 14.8765 7.52706 16.2807 9.20418C16.4505 9.40677 16.6257 9.60484 16.806 9.79818C15.9366 10.0594 15.4347 10.504 15.4347 11.0395C15.4347 11.491 15.801 11.889 16.4662 12.16C17.0354 12.3919 17.7849 12.5197 18.5767 12.5197C19.3684 12.5197 20.1179 12.3919 20.6871 12.16C21.3522 11.8889 21.7185 11.491 21.7185 11.0394C21.7185 10.505 21.2162 10.0599 20.3471 9.7984ZM18.5766 11.8451C16.9802 11.8451 16.1093 11.3129 16.1093 11.0394C16.1093 10.8612 16.5054 10.5352 17.3514 10.3553C17.9206 10.9091 18.3431 11.2382 18.3703 11.2594C18.4294 11.3052 18.502 11.33 18.5768 11.3299C18.6515 11.33 18.7241 11.3052 18.7832 11.2594C18.8104 11.2383 19.2328 10.9092 19.8021 10.3554C20.1789 10.4358 20.5054 10.5535 20.7339 10.6926C20.9281 10.8109 21.0441 10.9405 21.0441 11.0394C21.044 11.3129 20.1731 11.8451 18.5766 11.8451Z"></path>
<path d="M18.576 2.44968C17.4939 2.44968 16.6135 3.33006 16.6135 4.41227C16.6135 5.49439 17.4939 6.37477 18.576 6.37477C19.6582 6.37477 20.5386 5.49444 20.5386 4.41227C20.5386 3.3301 19.6582 2.44968 18.576 2.44968ZM18.5761 5.70022C17.8658 5.70022 17.288 5.12244 17.288 4.41222C17.288 3.70201 17.8658 3.12418 18.5761 3.12418C19.2863 3.12418 19.8641 3.70196 19.8641 4.41222C19.8641 5.12244 19.2863 5.70022 18.5761 5.70022ZM14.2011 10.7021H14.0471C13.935 10.7021 13.8223 10.7096 13.7121 10.7242C13.6241 10.7369 13.5446 10.7837 13.491 10.8545C13.4374 10.9254 13.4138 11.0145 13.4256 11.1026C13.4373 11.1907 13.4833 11.2706 13.5536 11.325C13.6239 11.3794 13.7128 11.4038 13.8011 11.3929C13.8826 11.3822 13.9648 11.3768 14.0471 11.3768H14.2011V11.3767C14.3874 11.3767 14.5384 11.2258 14.5384 11.0395C14.5384 10.8531 14.3874 10.7021 14.2011 10.7021ZM13.0861 20.8211H13.0845L12.6391 20.8231C12.5496 20.8233 12.4639 20.859 12.4008 20.9224C12.3377 20.9858 12.3023 21.0717 12.3025 21.1611C12.3027 21.2506 12.3384 21.3363 12.4018 21.3994C12.4652 21.4625 12.5511 21.4979 12.6405 21.4977H12.6421L13.0876 21.4957C13.177 21.4952 13.2626 21.4593 13.3256 21.3958C13.3885 21.3322 13.4237 21.2463 13.4233 21.1569C13.4229 21.0677 13.3872 20.9823 13.324 20.9193C13.2608 20.8564 13.1753 20.8211 13.0861 20.8211ZM14.6013 15.0708H14.1558C14.0664 15.0708 13.9806 15.1063 13.9174 15.1696C13.8541 15.2328 13.8186 15.3186 13.8186 15.4081C13.8186 15.4975 13.8541 15.5833 13.9174 15.6466C13.9806 15.7098 14.0664 15.7453 14.1558 15.7453H14.6013C14.6456 15.7453 14.6894 15.7366 14.7304 15.7197C14.7713 15.7027 14.8085 15.6779 14.8398 15.6466C14.8711 15.6152 14.896 15.5781 14.9129 15.5371C14.9299 15.4962 14.9386 15.4524 14.9386 15.4081C14.9386 15.3638 14.9299 15.3199 14.9129 15.279C14.896 15.2381 14.8711 15.2009 14.8398 15.1696C14.8085 15.1382 14.7713 15.1134 14.7304 15.0965C14.6894 15.0795 14.6456 15.0708 14.6013 15.0708ZM12.8142 11.3893C12.7535 11.3236 12.6693 11.2846 12.5799 11.281C12.4905 11.2774 12.4034 11.3095 12.3376 11.3701C12.2116 11.4863 12.0977 11.615 11.9977 11.7543C11.9477 11.827 11.9282 11.9164 11.9434 12.0034C11.9586 12.0903 12.0072 12.1679 12.0789 12.2194C12.1506 12.2709 12.2396 12.2922 12.3269 12.2788C12.4141 12.2654 12.4927 12.2184 12.5456 12.1478C12.619 12.0456 12.7026 11.9512 12.795 11.8659C12.8607 11.8052 12.8997 11.721 12.9033 11.6316C12.9069 11.5422 12.8749 11.4551 12.8142 11.3893ZM14.8679 20.8129H14.8664L14.421 20.815C14.3325 20.8166 14.2482 20.8529 14.1862 20.9162C14.1243 20.9794 14.0897 21.0644 14.0899 21.153C14.09 21.2415 14.125 21.3264 14.1873 21.3893C14.2495 21.4523 14.3339 21.4883 14.4225 21.4895H14.424L14.8694 21.4875C14.9579 21.4858 15.0423 21.4495 15.1042 21.3863C15.1661 21.323 15.2007 21.238 15.2006 21.1495C15.2004 21.061 15.1654 20.9761 15.1032 20.9131C15.0409 20.8501 14.9565 20.8142 14.8679 20.8129ZM11.3043 20.8291H11.3027L10.8572 20.8312C10.7678 20.8316 10.6822 20.8675 10.6192 20.9311C10.5563 20.9946 10.5211 21.0805 10.5215 21.17C10.5219 21.2591 10.5576 21.3445 10.6208 21.4075C10.684 21.4704 10.7695 21.5057 10.8587 21.5057H10.8603L11.3057 21.5037C11.3952 21.5033 11.4808 21.4673 11.5437 21.4038C11.6067 21.3403 11.6419 21.2543 11.6415 21.1649C11.6411 21.0757 11.6054 20.9903 11.5422 20.9274C11.479 20.8645 11.3934 20.8291 11.3043 20.8291ZM13.0633 14.7873C12.957 14.7202 12.8578 14.6425 12.7671 14.5554C12.7027 14.4934 12.6162 14.4595 12.5268 14.4613C12.4373 14.463 12.3523 14.5002 12.2902 14.5646C12.2595 14.5965 12.2354 14.6342 12.2193 14.6754C12.2031 14.7167 12.1952 14.7607 12.1961 14.805C12.197 14.8492 12.2065 14.8929 12.2243 14.9335C12.242 14.9741 12.2676 15.0108 12.2995 15.0415C12.4231 15.1603 12.5584 15.2663 12.7034 15.3578C12.7408 15.3815 12.7826 15.3975 12.8263 15.405C12.8699 15.4126 12.9146 15.4114 12.9579 15.4016C13.0011 15.3918 13.0419 15.3736 13.0781 15.348C13.1143 15.3224 13.145 15.29 13.1686 15.2525C13.1923 15.215 13.2083 15.1732 13.2158 15.1296C13.2233 15.0859 13.2221 15.0412 13.2123 14.9981C13.2025 14.9549 13.1843 14.914 13.1588 14.8778C13.1332 14.8417 13.1008 14.8109 13.0633 14.7873ZM12.2342 13.5793C12.2115 13.4622 12.2001 13.3431 12.2001 13.2238L12.2002 13.2051C12.2007 13.1608 12.1925 13.1168 12.176 13.0757C12.1595 13.0346 12.1351 12.9971 12.1042 12.9654C12.0732 12.9338 12.0363 12.9085 11.9956 12.8911C11.9549 12.8736 11.9111 12.8644 11.8669 12.8639L11.8629 12.8639C11.7741 12.8639 11.6889 12.8989 11.6258 12.9613C11.5627 13.0237 11.5267 13.1085 11.5257 13.1972L11.5255 13.2238C11.5255 13.3867 11.5412 13.5497 11.5721 13.7084C11.5806 13.7518 11.5975 13.7932 11.622 13.8301C11.6465 13.8671 11.678 13.8988 11.7147 13.9235C11.7514 13.9483 11.7927 13.9656 11.8361 13.9744C11.8795 13.9832 11.9242 13.9834 11.9677 13.9749C12.0112 13.9664 12.0526 13.9494 12.0895 13.925C12.1264 13.9005 12.1581 13.869 12.1829 13.8323C12.2076 13.7956 12.2249 13.7543 12.2337 13.7109C12.2425 13.6675 12.2427 13.6228 12.2342 13.5793ZM16.3832 15.0708H15.9378C15.8483 15.0708 15.7625 15.1063 15.6993 15.1696C15.636 15.2328 15.6005 15.3186 15.6005 15.4081C15.6005 15.4975 15.636 15.5833 15.6993 15.6466C15.7625 15.7098 15.8483 15.7453 15.9378 15.7453H16.3832C16.4727 15.7453 16.5584 15.7098 16.6217 15.6466C16.6849 15.5833 16.7205 15.4975 16.7205 15.4081C16.7205 15.3186 16.6849 15.2328 16.6217 15.1696C16.5584 15.1063 16.4727 15.0708 16.3832 15.0708ZM21.7981 15.7575C21.6679 15.6547 21.5298 15.5621 21.3852 15.4807C21.2231 15.3892 21.0173 15.4467 20.9258 15.609C20.9041 15.6475 20.8902 15.69 20.8849 15.734C20.8795 15.778 20.8829 15.8226 20.8948 15.8652C20.9068 15.9079 20.927 15.9478 20.9543 15.9826C20.9816 16.0175 21.0156 16.0466 21.0541 16.0683C21.1682 16.1327 21.2772 16.2058 21.38 16.2869C21.4395 16.334 21.513 16.3596 21.5888 16.3595C21.659 16.3596 21.7273 16.3378 21.7845 16.2972C21.8417 16.2566 21.8848 16.1992 21.9078 16.133C21.9308 16.0668 21.9326 15.995 21.913 15.9277C21.8933 15.8604 21.8532 15.8009 21.7981 15.7575ZM20.5462 21.0546C20.5206 20.8701 20.3501 20.741 20.1659 20.7667C20.0555 20.7819 19.9424 20.79 19.8296 20.7904L19.7665 20.7907C19.6783 20.793 19.5946 20.8296 19.5332 20.8928C19.4717 20.9559 19.4374 21.0406 19.4376 21.1288C19.4378 21.2169 19.4725 21.3015 19.5343 21.3644C19.596 21.4272 19.6799 21.4635 19.768 21.4653H19.7697L19.8327 21.465C19.975 21.4644 20.1172 21.4543 20.2583 21.4349C20.3021 21.4288 20.3444 21.4142 20.3826 21.3918C20.4208 21.3694 20.4543 21.3397 20.481 21.3044C20.5077 21.2691 20.5273 21.2288 20.5384 21.186C20.5496 21.1431 20.5523 21.0985 20.5462 21.0546ZM22.0347 20.1062C22.0042 20.0741 21.9676 20.0483 21.9271 20.0304C21.8866 20.0125 21.843 20.0027 21.7987 20.0016C21.7544 20.0005 21.7104 20.0082 21.669 20.0241C21.6277 20.0401 21.59 20.064 21.5579 20.0946C21.4629 20.185 21.3611 20.2679 21.2534 20.3427C21.1799 20.3937 21.1297 20.4718 21.1137 20.5598C21.0978 20.6478 21.1174 20.7385 21.1684 20.8121C21.1994 20.8569 21.2409 20.8936 21.2892 20.9188C21.3376 20.9441 21.3913 20.9573 21.4459 20.9572C21.5144 20.9572 21.5814 20.9363 21.6377 20.8971C21.7741 20.8025 21.9029 20.6975 22.0231 20.583C22.0552 20.5525 22.081 20.5159 22.0989 20.4754C22.1168 20.4349 22.1266 20.3913 22.1277 20.347C22.1288 20.3027 22.1211 20.2587 22.1051 20.2173C22.0892 20.176 22.0652 20.1382 22.0347 20.1062ZM22.6911 18.4682C22.6032 18.4517 22.5123 18.4707 22.4385 18.5212C22.3646 18.5716 22.3138 18.6493 22.2973 18.7372C22.273 18.8658 22.2387 18.9924 22.1948 19.1158C22.1659 19.1998 22.1713 19.2918 22.2098 19.3718C22.2483 19.4518 22.3169 19.5135 22.4005 19.5433C22.4842 19.5731 22.5762 19.5687 22.6567 19.5311C22.7371 19.4935 22.7995 19.4256 22.8303 19.3423C22.886 19.1858 22.9294 19.0253 22.9602 18.862C22.9767 18.7741 22.9577 18.6832 22.9072 18.6094C22.8567 18.5355 22.779 18.4847 22.6911 18.4682ZM22.8914 17.384C22.8455 17.2242 22.7872 17.0683 22.7169 16.9176C22.6782 16.8379 22.6097 16.7766 22.5263 16.747C22.4428 16.7173 22.3511 16.7217 22.2708 16.7592C22.1905 16.7966 22.1282 16.8641 22.0973 16.9471C22.0664 17.0301 22.0694 17.122 22.1056 17.2028C22.1609 17.3214 22.2069 17.4443 22.2431 17.5701C22.2633 17.6405 22.3058 17.7024 22.3643 17.7464C22.4227 17.7905 22.4939 17.8144 22.5671 17.8144C22.6194 17.8144 22.6709 17.8023 22.7177 17.779C22.7644 17.7557 22.8051 17.7218 22.8366 17.6801C22.868 17.6384 22.8894 17.5899 22.8989 17.5385C22.9084 17.4872 22.9059 17.4343 22.8914 17.384ZM18.1651 15.0708H17.7196C17.6302 15.0708 17.5444 15.1063 17.4811 15.1696C17.4179 15.2328 17.3824 15.3186 17.3824 15.4081C17.3824 15.4975 17.4179 15.5833 17.4811 15.6466C17.5444 15.7098 17.6302 15.7453 17.7196 15.7453H18.1651C18.2545 15.7453 18.3403 15.7098 18.4036 15.6466C18.4668 15.5833 18.5024 15.4975 18.5024 15.4081C18.5024 15.3186 18.4668 15.2328 18.4036 15.1696C18.3403 15.1063 18.2545 15.0708 18.1651 15.0708ZM16.6498 20.8048H16.6482L16.2028 20.8069C16.1143 20.8085 16.03 20.8448 15.968 20.9081C15.9061 20.9713 15.8715 21.0564 15.8717 21.1449C15.8719 21.2334 15.9069 21.3183 15.9691 21.3812C16.0313 21.4442 16.1158 21.4802 16.2043 21.4814H16.2059L16.6513 21.4794C16.7408 21.4792 16.8265 21.4435 16.8896 21.3801C16.9527 21.3167 16.988 21.2308 16.9878 21.1414C16.9876 21.0519 16.9519 20.9662 16.8885 20.9031C16.8251 20.84 16.7393 20.8046 16.6498 20.8048ZM19.9618 15.074C19.9139 15.0719 19.8661 15.0708 19.8182 15.0708H19.5015C19.412 15.0708 19.3262 15.1064 19.263 15.1696C19.1997 15.2329 19.1642 15.3187 19.1642 15.4081C19.1642 15.4976 19.1997 15.5833 19.263 15.6466C19.3262 15.7098 19.412 15.7454 19.5015 15.7454H19.8182V15.7453C19.8563 15.7453 19.8943 15.7462 19.9319 15.7479C19.9762 15.7498 20.0204 15.7431 20.062 15.7279C20.1036 15.7128 20.1419 15.6897 20.1746 15.6598C20.2072 15.6299 20.2337 15.5938 20.2524 15.5537C20.2712 15.5136 20.2818 15.4701 20.2838 15.4259C20.2857 15.3817 20.279 15.3374 20.2639 15.2958C20.2487 15.2542 20.2256 15.2159 20.1957 15.1833C20.1658 15.1506 20.1297 15.1241 20.0896 15.1054C20.0495 15.0866 20.006 15.076 19.9618 15.074ZM18.4316 20.7968H18.4301L17.9846 20.7988C17.8961 20.8004 17.8118 20.8368 17.7499 20.9C17.6879 20.9633 17.6533 21.0483 17.6535 21.1368C17.6537 21.2253 17.6887 21.3102 17.7509 21.3732C17.8131 21.4362 17.8976 21.4721 17.9861 21.4734H17.9877L18.4331 21.4713C18.5226 21.4709 18.6082 21.435 18.6711 21.3715C18.7341 21.3079 18.7693 21.222 18.7689 21.1325C18.7685 21.0434 18.7328 20.958 18.6696 20.895C18.6064 20.8321 18.5208 20.7968 18.4316 20.7968Z"></path>
</g>
</svg>