<svg xmlns="http://www.w3.org/2000/svg" width="57" height="57" viewBox="0 0 57 57"><g><path d="M44.9585 37.6918C48.6714 33.6856 50.9451 28.3275 50.9451 22.4476C50.945 10.0703 40.8753 0.000488281 28.4979 0.000488281C16.1204 0.000488281 6.05078 10.0703 6.05078 22.4476C6.05078 28.7806 8.68794 34.5087 12.9206 38.5937L7.38832 50.4764C7.31739 50.6287 7.28955 50.7976 7.30784 50.9646C7.32613 51.1316 7.38984 51.2904 7.49206 51.4238C7.59427 51.5572 7.73108 51.66 7.88762 51.721C8.04416 51.7821 8.21444 51.7991 8.37996 51.7702L15.1691 50.5839L18.6319 56.5429C18.7163 56.6882 18.8389 56.8076 18.9864 56.8881C19.1339 56.9686 19.3006 57.0072 19.4685 56.9995C19.6363 56.9919 19.7989 56.9384 19.9385 56.8449C20.0781 56.7514 20.1894 56.6213 20.2603 56.469L25.7285 44.7238C26.6362 44.836 27.5603 44.8947 28.4979 44.8947C29.8465 44.8947 31.1676 44.7749 32.4513 44.5459L36.5784 54.128C36.6449 54.2823 36.7523 54.4155 36.8892 54.513C37.026 54.6105 37.1869 54.6687 37.3545 54.6811C37.5221 54.6936 37.6899 54.6599 37.8396 54.5837C37.9894 54.5075 38.1154 54.3917 38.2039 54.2488L41.838 48.3928L48.5897 49.7755C48.7543 49.8094 48.9251 49.7975 49.0833 49.741C49.2416 49.6845 49.3813 49.5856 49.4872 49.4551C49.5933 49.3248 49.6616 49.1679 49.6847 49.0016C49.7079 48.8352 49.685 48.6656 49.6186 48.5113L44.9585 37.6918ZM19.3368 54.0961L16.437 49.106C16.3425 48.9435 16.2005 48.8139 16.0301 48.7346C15.8597 48.6553 15.6691 48.63 15.4839 48.6623L9.79863 49.6558L14.3564 39.8662C17.0693 42.0729 20.3052 43.6597 23.8469 44.4088L19.3368 54.0961ZM7.88948 22.4476C7.88948 11.0841 17.1344 1.83919 28.4979 1.83919C39.8614 1.83919 49.1063 11.0841 49.1063 22.4476C49.1063 33.8111 39.8614 43.056 28.4979 43.056C17.1344 43.056 7.88948 33.8111 7.88948 22.4476ZM41.5791 46.4632C41.3949 46.4254 41.2036 46.4449 41.0309 46.5193C40.8582 46.5937 40.7126 46.7193 40.6135 46.8791L37.5704 51.7829L34.2781 44.1389C37.7785 43.2053 40.9453 41.4459 43.5549 39.0813L47.233 47.6211L41.5791 46.4632ZM43.9487 28.7742C43.9047 28.4062 43.8637 28.0788 43.8268 27.7849C43.6769 26.5904 43.6018 25.9911 43.6854 25.517C43.7691 25.0429 44.0447 24.5052 44.594 23.4342C44.7291 23.1705 44.8797 22.8769 45.0468 22.5463C45.9182 20.8224 45.5574 18.7759 44.1489 17.454C43.8787 17.2004 43.6368 16.9761 43.4196 16.7745C42.5372 15.9558 42.0942 15.545 41.8535 15.1281C41.6129 14.7112 41.4784 14.1222 41.2108 12.9486C41.1448 12.6597 41.0715 12.3382 40.9869 11.9773C40.5464 10.0966 38.9545 8.76087 37.0258 8.65353C36.6559 8.63285 36.3264 8.61653 36.0305 8.60182C34.8282 8.54195 34.2247 8.51195 33.7723 8.34727C33.32 8.18248 32.8384 7.81773 31.8789 7.09075C31.6143 6.88984 31.3491 6.68977 31.0832 6.49053C29.5367 5.33307 27.4589 5.33307 25.9123 6.49053C25.6156 6.71255 25.3527 6.91182 25.1165 7.09075C24.1571 7.81761 23.6754 8.18248 23.2231 8.34727C22.7707 8.51195 22.1672 8.54183 20.9651 8.60182C20.6691 8.61653 20.3397 8.63296 19.9698 8.65353C18.0411 8.76087 16.4492 10.0966 16.0086 11.9773C15.9241 12.3381 15.8507 12.6597 15.7849 12.9485C15.5171 14.1221 15.3827 14.7111 15.142 15.1281C14.9014 15.545 14.4584 15.9558 13.576 16.7744C13.3322 17.0002 13.0891 17.2267 12.8466 17.454C11.4382 18.7759 11.0773 20.8224 11.9488 22.5463C12.116 22.8769 12.2664 23.1705 12.4015 23.4342C12.9509 24.5052 13.2265 25.0429 13.3101 25.517C13.3938 25.9911 13.3185 26.5905 13.1687 27.7849C13.1319 28.079 13.0908 28.4062 13.0468 28.7742C12.8175 30.6921 13.8565 32.4917 15.6323 33.2523C15.9729 33.3982 16.2769 33.5263 16.55 33.6414C17.6592 34.1087 18.216 34.3434 18.5848 34.6529C18.9535 34.9624 19.2813 35.4698 19.9342 36.4811C20.0949 36.73 20.2739 37.0071 20.4768 37.3173C21.2935 38.5661 22.6445 39.2743 24.0694 39.2742C24.4889 39.2742 24.9152 39.2127 25.3358 39.0857C25.6904 38.9784 26.0056 38.8812 26.2887 38.7939C27.4389 38.4389 28.0163 38.2608 28.4977 38.2608C28.979 38.2608 29.5564 38.4389 30.7067 38.7939C30.9898 38.8812 31.3051 38.9784 31.6596 39.0857C33.5086 39.6445 35.4614 38.9338 36.5186 37.3172C36.7215 37.007 36.9004 36.7299 37.0612 36.481C37.7141 35.4697 38.0419 34.9621 38.4107 34.6528C38.7794 34.3434 39.3362 34.1087 40.4454 33.6413C40.7185 33.5262 41.0225 33.3981 41.3632 33.2521C43.139 32.4917 44.178 30.6921 43.9487 28.7742ZM42.9579 22.595C41.6933 25.0612 41.6576 25.2638 42.0025 28.0136C42.0389 28.3043 42.0796 28.6283 42.123 28.9923C42.2567 30.1101 41.6742 31.1188 40.6394 31.562C40.3023 31.7064 40.0016 31.833 39.7314 31.9469C37.1776 33.0231 37.02 33.1554 35.5167 35.4835C35.3387 35.7598 35.1598 36.0355 34.98 36.3107C34.3639 37.2528 33.2694 37.6512 32.1917 37.3254C31.8409 37.2194 31.529 37.1232 31.2489 37.0368C28.6007 36.2196 28.395 36.2195 25.7467 37.0368C25.4667 37.1232 25.1548 37.2194 24.8039 37.3254C23.7261 37.6515 22.6318 37.2528 22.0157 36.3107C21.815 36.004 21.6379 35.7297 21.479 35.4835C19.9756 33.1553 19.8181 33.0231 17.2642 31.9469C16.994 31.8331 16.6933 31.7064 16.3562 31.562C15.3214 31.1188 14.739 30.11 14.8726 28.9923C14.9161 28.6283 14.9568 28.3044 14.9933 28.0136C15.3382 25.2637 15.3024 25.0612 14.0379 22.595C13.9041 22.3342 13.7553 22.0438 13.5899 21.7166C13.0821 20.712 13.2842 19.565 14.1051 18.7945C14.3725 18.5436 14.6118 18.3217 14.8267 18.1223C16.8583 16.2375 16.9612 16.0594 17.5776 13.3573C17.6428 13.0716 17.7154 12.7534 17.7989 12.3964C18.0557 11.3003 18.9479 10.5516 20.0719 10.4891C20.4379 10.4688 20.7638 10.4526 21.0565 10.438C23.8246 10.3002 24.0179 10.2298 26.227 8.5562C26.4606 8.37922 26.7208 8.18213 27.0143 7.96241C27.4649 7.62512 27.9814 7.45654 28.4979 7.45654C29.0143 7.45654 29.5308 7.62524 29.9815 7.96241C30.275 8.18202 30.535 8.37922 30.7687 8.5562C32.9778 10.2298 33.1711 10.3002 35.9391 10.438C36.2318 10.4526 36.5578 10.4689 36.9237 10.4891C38.0478 10.5516 38.94 11.3003 39.1967 12.3964C39.2804 12.7534 39.3529 13.0717 39.4182 13.3574C40.0346 16.0594 40.1374 16.2375 42.1692 18.1223C42.3841 18.3217 42.6234 18.5437 42.8907 18.7945C43.7115 19.565 43.9137 20.712 43.4058 21.7166C43.2575 22.0099 43.1082 22.3027 42.9579 22.595ZM36.3851 19.3822L31.4686 19.1425L29.7215 14.5408C29.5272 14.0289 29.0468 13.698 28.4979 13.698C27.9488 13.698 27.4684 14.0289 27.2742 14.5408L25.5271 19.1425L20.6108 19.3822C20.0628 19.4088 19.5991 19.7631 19.4295 20.2849C19.2599 20.8068 19.4266 21.366 19.8543 21.7098L23.6908 24.7934L22.3995 29.5433C22.2556 30.0726 22.4495 30.623 22.8933 30.9455C23.1164 31.1088 23.3856 31.1971 23.6621 31.1976C23.9104 31.1976 24.1593 31.1258 24.3794 30.9817L28.4979 28.286L32.6162 30.9819C33.0753 31.2824 33.6587 31.268 34.1026 30.9457C34.5464 30.6231 34.7402 30.0727 34.5962 29.5435L33.3049 24.7937L37.1416 21.71C37.5692 21.3662 37.7359 20.807 37.5662 20.2852C37.3966 19.7633 36.9329 19.4089 36.3851 19.3822ZM28.0026 15.1936C28.0026 15.1934 28.0026 15.1934 28.0026 15.1936V15.1936ZM31.8827 23.5777C31.6841 23.7372 31.5364 23.9511 31.4577 24.1933C31.379 24.4356 31.3727 24.6955 31.4396 24.9412L32.4558 28.6793L29.2147 26.5578C29.0017 26.4182 28.7525 26.3439 28.4978 26.3439C28.2431 26.3439 27.994 26.4182 27.7809 26.5577L24.5397 28.6793L25.5562 24.9408C25.6229 24.6951 25.6165 24.4353 25.5377 24.1932C25.459 23.9511 25.3114 23.7372 25.1129 23.5777L22.0936 21.1508L25.9624 20.9621C26.2169 20.9499 26.4622 20.8636 26.6684 20.7139C26.8745 20.5642 27.0325 20.3576 27.1229 20.1194L28.4979 16.498L29.8729 20.1197C29.9633 20.3578 30.1212 20.5643 30.3272 20.714C30.5333 20.8637 30.7785 20.9499 31.0329 20.9623L34.9021 21.151L31.8827 23.5777Z"></path></g></svg>